# xmcd CD database file
#
# Track frame offsets:
#	150
#	18198
#	34115
#	49827
#	67822
#	84717
#	102246
#	115968
#	128428
#	159003
#	178568
#	195147
#	210451
#	227385
#	243731
#
# Disc length: 3579 seconds
#
# Revision: 0
# Processed by: cddbd v1.5PL3 Copyright (c) Steve Scherf et al.
# Submitted via: CDex 1.51
#
DISCID=ad0df90f
DTITLE=Various Artist - Big Hits 1980-2000 (RITMO)
DYEAR=2001
DGENRE=Salsa
TTITLE0=Funkstar de Luxe feat. Laid Back - Sunshine Reggae
TTITLE1=Mojito - Eo Ea (que viva la noche!)
TTITLE2=Jamaica Soundsystem - Every breath you take
TTITLE3=Tony Esposito - Papa Chico
TTITLE4=Chico and The Gypsies - Vagabundo
TTITLE5=Ronaldo - Ritmo de Brazil
TTITLE6=Dajango - Baila chica baila
TTITLE7=Anderson Farah - Viva el tango
TTITLE8=Sueno Latino - Sueno Latino
TTITLE9=Fly Girl - If you had my love
TTITLE10=DJ Tequila - Ritmo Infernale (Copacabana Vocal Medley)
TTITLE11=Paradise Love Squad feat. Oli P. - Elvissa
TTITLE12=Latino Allstars - Latino Lover
TTITLE13=Arrow - Hot hot hot
TTITLE14=Carlos Ponce - Ameli
EXTD=YEAR: 2001
EXTT0=
EXTT1=
EXTT2=
EXTT3=
EXTT4=
EXTT5=
EXTT6=
EXTT7=
EXTT8=
EXTT9=
EXTT10=
EXTT11=
EXTT12=
EXTT13=
EXTT14=
PLAYORDER=
